<?xml version="1.0" encoding="utf-8"?>
<!-- Generator: Adobe Illustrator 20.1.0, SVG Export Plug-In . SVG Version: 6.00 Build 0)  -->
<svg version="1.1" id="Layer_3" xmlns="http://www.w3.org/2000/svg" xmlns:xlink="http://www.w3.org/1999/xlink" x="0px" y="0px"
	 viewBox="0 0 510.7 195" style="enable-background:new 0 0 510.7 195;" xml:space="preserve">
<g>
	<g>
		<path d="M192.7,53.9h3.1c0.6,0,0.7,0,1.2,0.2c-0.2-0.5-0.2-0.6-0.2-1.2v-22c0-0.6,0-0.7,0.2-1.2c-0.5,0.2-0.6,0.2-1.2,0.2h-3.1
			v-5.1h15.9l5.3,19.2c1,3.6,1.2,4.6,1.8,8h0.3c0.7-3.4,0.8-4.3,1.9-7.9l5.5-19.2h15.8v5.1H236c-0.6,0-0.7,0-1.2-0.2
			c0.2,0.5,0.2,0.6,0.2,1.2v22c0,0.6,0,0.7-0.2,1.2c0.5-0.2,0.6-0.2,1.2-0.2h3.1V59h-14.5v-5.1h2.6c0.6,0,0.7,0,1.2,0.2
			c-0.2-0.5-0.2-0.6-0.2-1.2V39.5c0-4.7,0.1-6.3,0.5-11l-0.3,0c-1,4.7-1.4,6-2.8,10.7L219.8,59h-8.3l-5.9-19.8
			c-1.2-4.3-1.6-6-2.7-10.7l-0.3,0c0.4,4.7,0.5,6.3,0.5,11v13.4c0,0.6,0,0.7-0.2,1.2c0.5-0.2,0.6-0.2,1.2-0.2h2.5V59h-13.9
			L192.7,53.9L192.7,53.9z"/>
		<path d="M258.7,55.6c-2.8,2.8-5.1,3.8-8.4,3.8c-5.3,0-8.9-3.1-8.9-7.8c0-5.4,4.1-8.2,12.2-8.2c0.6,0,1.7,0,2.9,0.2h0.6l0.6,0
			l0.6,0.1c-0.2-0.2-0.2-0.3-0.2-0.5v-0.4c0-1.5-0.2-2.4-0.6-3c-0.7-0.9-2.1-1.4-3.8-1.4c-2.8,0-4.1,1.1-4.5,3.6h-6.6
			c0.1-5.3,3.9-8.2,11.1-8.2c3.7,0,6.9,1,8.8,2.7c1.4,1.3,2.2,3.3,2.2,6.2v10.8c0,0.4,0,0.5-0.2,0.8c0.3-0.2,0.4-0.2,0.8-0.2l2.5,0
			V59h-9.2v-1.4c0-0.7,0.1-1,0.3-1.8L258.7,55.6z M254.6,48c-4.3,0-6.4,1.2-6.4,3.8c0,1.8,1.5,3.1,3.8,3.1c2.2,0,4.1-1.1,5.2-2.8
			c0.7-1.2,0.8-1.9,0.8-4L254.6,48z"/>
		<path d="M270.3,54.2l2.6,0c0.4,0,0.5,0.1,0.8,0.2c-0.1-0.3-0.1-0.4-0.1-0.8V39.9c0-0.3,0-0.4,0.1-0.7c-0.3,0.1-0.4,0.1-0.8,0.1
			l-2.6,0.1v-4.7h10v1.7c0,0.8-0.1,1.4-0.5,2.5l0.2,0.1c2.2-3.6,4.5-4.9,8.3-4.9c5.5,0,8.8,3.2,8.8,8.6v11c0,0.4,0,0.5-0.2,0.8
			c0.3-0.1,0.4-0.2,0.8-0.2l2.4,0V59h-13.3v-4.8l2.6,0c0.4,0,0.5,0.1,0.8,0.2c-0.2-0.3-0.2-0.4-0.2-0.8v-9.8c0-3.1-1.3-4.6-4.2-4.6
			c-3.4,0-5.3,2.3-5.3,6.4v8c0,0.4,0,0.5-0.1,0.8c0.3-0.1,0.4-0.2,0.7-0.2l2.7,0V59h-13.5V54.2z"/>
		<path d="M325,50.6c-0.4,5.9-4.2,9-10.8,9c-4,0-7.1-1.2-9.2-3.5c-2.1-2.3-3.3-5.8-3.3-9.3c0-7.8,4.4-12.8,11-12.8
			c3.4,0,5.5,1.2,7.2,4.2l0.1,0c-0.3-1.1-0.4-1.5-0.4-2.1v-1.3h5.2v9.8h-5.7c-0.3-3.6-1.7-5.3-4.6-5.3c-3.6,0-5.7,2.9-5.7,7.9
			c0,4.9,2,7.7,5.5,7.7c2.5,0,4.2-1.4,4.6-4L325,50.6L325,50.6z"/>
		<path d="M327.6,54.2l2.6,0c0.4,0,0.5,0.1,0.8,0.2c-0.2-0.3-0.2-0.4-0.2-0.8V29.9c0-0.6,0-0.7,0.2-1.2c-0.5,0.2-0.6,0.2-1.2,0.2
			h-2.2v-4.8h10.2v7.8c0,3,0,3.7-0.3,6.5l0.2,0.1c2.6-3.4,4.5-4.4,7.8-4.4c5.4,0,8.9,3.1,8.9,8v11.7c0,0.4,0,0.5-0.1,0.8
			c0.4-0.1,0.4-0.2,0.8-0.2l2.4,0V59h-13.3v-4.8l2.6,0c0.4,0,0.5,0.1,0.8,0.2c-0.1-0.3-0.1-0.4-0.1-0.8v-9.8c0-3-1.4-4.6-4.1-4.6
			c-3.5,0-5.4,2.2-5.4,6.4v8c0,0.4,0,0.5-0.2,0.8c0.4-0.1,0.5-0.2,0.8-0.2l2.7,0V59h-13.5L327.6,54.2L327.6,54.2z"/>
		<path d="M383.3,51.5c-0.6,4.9-5.2,8.2-11.5,8.2c-7.9,0-12.8-5-12.8-12.9c0-4.2,1-7,3.4-9.4c2.3-2.2,5.4-3.4,9.1-3.4
			c7.6,0,12,4.7,12,12.7v2h-16.3c-0.6,0-0.8,0-1.3-0.2c0.3,4.1,2.5,6.3,6,6.3c2.6,0,4.3-1.2,4.9-3.4
			C376.9,51.5,383.3,51.5,383.3,51.5z M375.4,44.4c0.8,0,0.9,0,1.5,0.2c-0.5-4-2.2-5.9-5.3-5.9c-3.2,0-5.1,2.1-5.5,5.9
			c0.6-0.2,0.8-0.2,1.5-0.2C367.6,44.4,375.4,44.4,375.4,44.4z"/>
		<path d="M392.4,50.4c0.3,3,2.2,4.7,5,4.7c2.2,0,3.5-1,3.5-2.6c0-1.7-1.1-2.5-4.3-3.1c-5.2-1-6.7-1.5-8-2.7c-1.4-1.4-2-2.8-2-4.9
			c0-5.1,3.1-8,8.9-8c2.8,0,4.8,1,6.7,3.5l0.2-0.1c-0.2-0.8-0.3-1.1-0.3-1.6v-1.1h5.1v8.1h-5.3c-0.4-2.9-1.9-4.4-4.7-4.4
			c-2.1,0-3.5,1-3.5,2.6c0,0.8,0.4,1.4,0.9,1.7c0.5,0.3,1.2,0.6,2.1,0.7l3.2,0.7c4.1,0.9,5.5,1.5,6.8,3.2c0.9,1.2,1.3,2.7,1.3,4.5
			c0,5-3.3,7.8-9.2,7.8c-3.1,0-4.8-0.9-7-3.8l-0.2,0.1c0.3,0.8,0.4,1.2,0.4,1.7V59h-5.2v-8.5L392.4,50.4L392.4,50.4z"/>
		<path d="M409.7,34.6h2.8c0.6,0,0.7,0,1.2,0.1c-0.2-0.5-0.2-0.6-0.2-1.1v-3.5l7-2.3v5.8c0,0.6,0,0.6-0.2,1.1
			c0.5-0.1,0.6-0.1,1.2-0.1h5.7v4.8h-5.7c-0.6,0-0.7,0-1.2-0.2c0.2,0.5,0.2,0.6,0.2,1.2v11.4c0,2.1,0.6,2.9,1.9,2.9
			c1.5,0,2.1-0.9,2.2-3.7h4.1V52c0,5-2.4,7.3-7.3,7.3c-5.3,0-7.9-2.3-7.9-6.8v-12c0-0.6,0-0.7,0.2-1.2c-0.5,0.2-0.6,0.2-1.2,0.2
			h-2.8L409.7,34.6L409.7,34.6z"/>
		<path d="M455,51.5c-0.6,4.9-5.2,8.2-11.5,8.2c-7.9,0-12.8-5-12.8-12.9c0-4.2,1-7,3.4-9.4c2.3-2.2,5.4-3.4,9.1-3.4
			c7.6,0,12,4.7,12,12.7v2h-16.3c-0.6,0-0.8,0-1.3-0.2c0.3,4.1,2.5,6.3,6,6.3c2.6,0,4.3-1.2,4.9-3.4C448.6,51.5,455,51.5,455,51.5z
			 M447,44.4c0.8,0,0.9,0,1.5,0.2c-0.5-4-2.2-5.9-5.3-5.9c-3.2,0-5.1,2.1-5.5,5.9c0.6-0.2,0.8-0.2,1.5-0.2
			C439.2,44.4,447,44.4,447,44.4z"/>
		<path d="M457.8,54.2l2.6,0c0.4,0,0.5,0.1,0.8,0.2c-0.2-0.3-0.2-0.4-0.2-0.8V39.9c0-0.3,0-0.4,0.2-0.7c-0.4,0.1-0.5,0.1-0.8,0.1
			l-2.6,0.1v-4.7h9.7V37c0,1-0.1,1.9-0.5,3.7l0.3,0.1c1.8-4.8,4.2-6.7,7.9-6.7c0.9,0,1.4,0.1,2.7,0.3v6c-1-0.2-1.4-0.2-2.2-0.2
			c-4.9,0-7.6,2.6-7.6,7.4v5.5c0,0.7,0,0.8-0.1,1.3c0.5-0.1,0.7-0.2,1.2-0.2l2.9,0V59h-14.3L457.8,54.2L457.8,54.2z"/>
		<path d="M192.7,102.3h3.1c0.6,0,0.7,0,1.2,0.2c-0.2-0.5-0.2-0.6-0.2-1.2v-22c0-0.6,0-0.7,0.2-1.2c-0.5,0.2-0.6,0.2-1.2,0.2h-3.1
			v-5.1h15.9l5.3,19.2c1,3.6,1.2,4.6,1.8,8h0.3c0.7-3.4,0.8-4.3,1.9-7.9l5.5-19.2h15.8v5.1H236c-0.6,0-0.7,0-1.2-0.2
			c0.2,0.5,0.2,0.6,0.2,1.2v22c0,0.6,0,0.7-0.2,1.2c0.5-0.2,0.6-0.2,1.2-0.2h3.1v5.1h-14.5v-5.1h2.6c0.6,0,0.7,0,1.2,0.2
			c-0.2-0.5-0.2-0.6-0.2-1.2V87.9c0-4.7,0.1-6.3,0.5-11l-0.3,0c-1,4.7-1.4,6-2.8,10.7l-5.9,19.8h-8.3l-5.9-19.8
			c-1.2-4.3-1.6-6-2.7-10.7l-0.3,0c0.4,4.7,0.5,6.3,0.5,11v13.4c0,0.6,0,0.7-0.2,1.2c0.5-0.2,0.6-0.2,1.2-0.2h2.5v5.1h-13.9
			L192.7,102.3L192.7,102.3z"/>
		<path d="M265.2,99.9c-0.6,4.9-5.2,8.2-11.5,8.2c-7.9,0-12.8-5-12.8-12.9c0-4.2,1-7,3.4-9.4c2.3-2.2,5.4-3.4,9.1-3.4
			c7.6,0,12,4.7,12,12.7v2h-16.3c-0.6,0-0.8,0-1.3-0.2c0.3,4.1,2.5,6.3,6,6.3c2.6,0,4.3-1.2,4.9-3.4L265.2,99.9L265.2,99.9z
			 M257.2,92.8c0.8,0,0.9,0,1.5,0.2c-0.5-4-2.2-5.9-5.3-5.9c-3.2,0-5.1,2.1-5.5,5.9c0.6-0.2,0.8-0.2,1.5-0.2H257.2z"/>
		<path d="M267.3,83h2.8c0.6,0,0.7,0,1.2,0.1c-0.2-0.5-0.2-0.6-0.2-1.1v-3.5l7-2.3V82c0,0.6,0,0.6-0.2,1.1c0.5-0.1,0.6-0.1,1.2-0.1
			h5.6v4.8h-5.6c-0.6,0-0.7,0-1.2-0.2c0.2,0.5,0.2,0.6,0.2,1.2v11.4c0,2.1,0.6,2.9,2,2.9c1.5,0,2.1-0.9,2.2-3.6h4.1v0.9
			c0,5-2.4,7.3-7.3,7.3c-5.3,0-7.9-2.3-7.9-6.8v-12c0-0.6,0-0.7,0.2-1.2c-0.5,0.2-0.6,0.2-1.2,0.2h-2.8L267.3,83L267.3,83z"/>
		<path d="M288.7,102.6l2.6,0.1c0.4,0,0.5,0.1,0.8,0.2c-0.2-0.3-0.2-0.4-0.2-0.8V88.3c0-0.3,0-0.4,0.2-0.7c-0.4,0.1-0.5,0.1-0.8,0.1
			l-2.6,0.1V83h9.7v2.4c0,1-0.1,1.9-0.5,3.8l0.3,0.1c1.8-4.8,4.2-6.7,7.9-6.7c0.9,0,1.4,0.1,2.7,0.3v6c-1-0.2-1.4-0.2-2.2-0.2
			c-4.9,0-7.6,2.6-7.6,7.4v5.5c0,0.7,0,0.8-0.1,1.3c0.5-0.1,0.7-0.2,1.2-0.2l2.9-0.1v4.8h-14.3L288.7,102.6L288.7,102.6z"/>
		<path d="M335.8,95.1c0,7.8-5.1,12.8-13.1,12.8c-3.2,0-6.8-1.3-8.9-3.1c-2.5-2.1-4-5.7-4-9.7c0-3.6,1.2-7,3.4-9.1
			c2.3-2.3,5.9-3.6,9.6-3.6C330.7,82.4,335.8,87.4,335.8,95.1z M317.1,95.1c0,4.9,2.2,7.9,5.8,7.9c3.5,0,5.8-3,5.8-7.7
			c0-4.8-2.2-7.9-5.8-7.9C319.3,87.4,317.1,90.3,317.1,95.1z"/>
		<path d="M337.2,111.5h2.2c0.6,0,0.7,0,1.2,0.2c-0.2-0.5-0.2-0.6-0.2-1.2V88.3c0-0.3,0-0.4,0.2-0.7c-0.4,0.1-0.4,0.1-0.8,0.1
			l-2.6,0.1V83h9.8v1.8c0,0.8-0.1,1.4-0.4,2.7l0.2,0.1c2-3.5,4.7-5.2,8.3-5.2c6.7,0,10.9,4.9,10.9,12.9c0,7.8-4.1,12.7-10.5,12.7
			c-3.7,0-6.4-1.6-8.2-4.9l-0.2,0.1c0.4,2,0.4,2.6,0.4,4.6v2.8c0,0.6,0,0.7-0.1,1.2c0.5-0.2,0.6-0.2,1.1-0.2h2.7v4.8h-13.9
			L337.2,111.5L337.2,111.5z M347.1,95.3c0,4.6,2.4,7.7,6,7.7c3.7,0,5.9-2.9,5.9-7.8c0-4.9-2.2-7.9-5.6-7.9
			C349.5,87.3,347.1,90.4,347.1,95.3z"/>
		<path d="M394,95.1c0,7.8-5.1,12.8-13.1,12.8c-3.2,0-6.8-1.3-8.9-3.1c-2.5-2.1-4-5.7-4-9.7c0-3.6,1.2-7,3.4-9.1
			c2.3-2.3,5.9-3.6,9.6-3.6C388.9,82.4,394,87.4,394,95.1z M375.3,95.1c0,4.9,2.2,7.9,5.8,7.9c3.5,0,5.8-3,5.8-7.7
			c0-4.8-2.2-7.9-5.8-7.9C377.5,87.4,375.3,90.3,375.3,95.1z"/>
		<path d="M395.8,102.6l2.6,0.1c0.4,0,0.5,0,0.8,0.2c-0.2-0.3-0.2-0.4-0.2-0.8V78.3c0-0.6,0-0.7,0.2-1.2c-0.5,0.2-0.6,0.2-1.2,0.2
			h-2.2v-4.8H406V102c0,0.4,0,0.5-0.1,0.8c0.3-0.2,0.4-0.2,0.8-0.2l2.4-0.1v4.8h-13.2L395.8,102.6L395.8,102.6z"/>
		<path d="M411.9,102.6l2.6,0.1c0.4,0,0.5,0.1,0.8,0.2c-0.2-0.3-0.2-0.4-0.2-0.8V88.3c0-0.3,0-0.4,0.2-0.7c-0.4,0.1-0.5,0.1-0.8,0.1
			l-2.6,0.1V83h10.2v19c0,0.4,0,0.5-0.2,0.8c0.4-0.1,0.5-0.2,0.8-0.2l2.4-0.1v4.8h-13.3V102.6z M414.8,72.5h7.2v7h-7.2V72.5z"/>
		<path d="M425.9,83h2.8c0.6,0,0.7,0,1.2,0.1c-0.2-0.5-0.2-0.6-0.2-1.1v-3.5l7-2.3V82c0,0.6,0,0.6-0.2,1.1c0.5-0.1,0.6-0.1,1.2-0.1
			h5.6v4.8h-5.6c-0.6,0-0.7,0-1.2-0.2c0.2,0.5,0.2,0.6,0.2,1.2v11.4c0,2.1,0.6,2.9,2,2.9c1.5,0,2.1-0.9,2.2-3.6h4.1v0.9
			c0,5-2.4,7.3-7.3,7.3c-5.3,0-7.9-2.3-7.9-6.8v-12c0-0.6,0-0.7,0.2-1.2c-0.5,0.2-0.6,0.2-1.2,0.2h-2.8L425.9,83L425.9,83z"/>
		<path d="M463.9,104c-2.8,2.8-5.1,3.8-8.4,3.8c-5.3,0-8.9-3.1-8.9-7.8c0-5.4,4.1-8.2,12.2-8.2c0.6,0,1.7,0.1,2.9,0.2h0.6l0.6,0.1
			l0.6,0.1c-0.1-0.2-0.1-0.3-0.1-0.5v-0.4c0-1.5-0.2-2.4-0.6-3c-0.7-0.9-2.1-1.4-3.8-1.4c-2.8,0-4.1,1.1-4.5,3.6h-6.6
			c0.1-5.3,3.9-8.2,11.1-8.2c3.7,0,6.9,1,8.8,2.7c1.4,1.3,2.2,3.3,2.2,6.2V102c0,0.4,0,0.5-0.2,0.8c0.3-0.2,0.4-0.2,0.8-0.2l2.5-0.1
			v4.8h-9.2v-1.4c0-0.7,0.1-1,0.3-1.8L463.9,104z M459.8,96.4c-4.3,0-6.4,1.2-6.4,3.8c0,1.8,1.5,3.1,3.8,3.1c2.2,0,4.1-1.1,5.2-2.8
			c0.7-1.2,0.8-1.9,0.8-4L459.8,96.4z"/>
		<path d="M475.2,102.6l2.6,0.1c0.4,0,0.5,0.1,0.8,0.2c-0.1-0.3-0.1-0.4-0.1-0.8V88.3c0-0.3,0-0.4,0.1-0.7c-0.3,0.1-0.4,0.1-0.8,0.1
			l-2.6,0.1V83h10v1.7c0,0.8-0.1,1.4-0.5,2.5l0.2,0.1c2.2-3.6,4.5-4.9,8.3-4.9c5.5,0,8.8,3.2,8.8,8.6v11c0,0.4,0,0.5-0.2,0.8
			c0.3-0.1,0.4-0.2,0.8-0.2l2.4-0.1v4.8h-13.3v-4.8l2.6,0.1c0.4,0,0.5,0.1,0.8,0.2c-0.2-0.3-0.2-0.4-0.2-0.8v-9.8
			c0-3.1-1.3-4.6-4.2-4.6c-3.4,0-5.3,2.3-5.3,6.4v8c0,0.4,0,0.5-0.1,0.8c0.3-0.1,0.4-0.2,0.7-0.2l2.7-0.1v4.8h-13.5L475.2,102.6
			L475.2,102.6z"/>
		<path d="M197.8,125.9c0-0.6,0-0.6,0.2-1.1c-0.5,0.1-0.6,0.1-1.2,0.1h-3.6v-3.4h14.6v3.4h-4.4c-0.5,0-0.6,0-1.1-0.1
			c0.1,0.5,0.1,0.6,0.1,1.1v17.5c0,2.5,0.5,4.2,1.5,5.7c1.5,2.2,4.3,3.5,7.3,3.5c5.8,0,9-3.8,9-10.4v-16.4c0-0.6,0-0.6,0.2-1.1
			c-0.5,0.1-0.6,0.1-1.1,0.1h-4.4v-3.4h14v3.4h-3.5c-0.5,0-0.6,0-1.1-0.1c0.1,0.5,0.1,0.6,0.1,1.1v15.8c0,4.8-0.5,7-2.3,9.6
			c-2.3,3.3-6.2,5.2-10.7,5.2c-4.8,0-8.6-1.6-11-4.7c-1.8-2.3-2.5-4.8-2.5-8.8L197.8,125.9L197.8,125.9z"/>
		<path d="M238,136.8c1.3-3.8,4.1-5.5,8.3-5.5c5.2,0,8.4,2.8,8.4,7.4v12.9c0,0.6,0,0.7-0.2,1.2c0.5-0.2,0.6-0.2,1.2-0.2h2.8v3.2
			h-12.4v-3.2h3.2c0.5,0,0.6,0,1.1,0.2c-0.1-0.5-0.1-0.6-0.1-1.2v-11.4c0-3.5-1.7-5.4-5-5.6c-4.2-0.2-7,2.8-7,7.6v9.4
			c0,0.5,0,0.7-0.2,1.2c0.5-0.2,0.6-0.2,1.2-0.2h3.2v3.2h-13v-3.2h3.4c0.6,0,0.6,0,1.1,0.2c-0.1-0.5-0.1-0.6-0.1-1.2v-15.5
			c0-0.6,0-0.8,0.1-1.3c-0.6,0.2-0.7,0.2-1.3,0.2l-3.3,0.1v-3.2h8.5v2.2c0,0.7-0.1,1.3-0.4,2.7L238,136.8z"/>
		<path d="M269,151.6c0,0.6,0,0.7-0.2,1.2c0.5-0.2,0.6-0.2,1.2-0.2h3.2v3.2h-13v-3.2h3.4c0.6,0,0.6,0,1.1,0.2
			c-0.1-0.5-0.1-0.6-0.1-1.2v-15.5c0-0.6,0-0.8,0.1-1.3c-0.5,0.2-0.7,0.2-1.2,0.2l-3.3,0.1v-3.2h8.7L269,151.6L269,151.6z
			 M269,121.5v4.7h-4.7v-4.7H269z"/>
		<path d="M291.6,137.8c0.5-1.3,0.7-1.7,1.2-3c-1,0.2-1.2,0.2-2.4,0.2l-2.2,0.1v-3.2h11.5v3.2l-2.8-0.1l-8.3,20.9h-5.4l-8.5-20.9
			L272,135v-3.2h11.7v3.2l-2.2-0.1c-1.1,0-1.4,0-2.4-0.2c0.6,1.3,0.7,1.6,1.2,2.9l3.4,8.9c1.1,2.8,1.3,3.3,2.1,5.9h0.2
			c0.8-2.6,1-3.1,2.1-5.9L291.6,137.8z"/>
		<path d="M323,148.4c-0.8,4.9-5.1,8-11.1,8c-7.5,0-12.3-4.8-12.3-12.4c0-7.9,4.7-12.8,12.3-12.8c5.6,0,9.5,2.8,10.8,7.7
			c0.5,1.9,0.6,2.8,0.6,5.9h-18.3c-0.4,0-0.5,0-0.9-0.2c0.1,4.8,3.3,8.4,7.8,8.4c3.9,0,6.5-1.7,7.2-4.6L323,148.4L323,148.4z
			 M317.7,141.6c0.6,0,0.7,0,1.1,0.2c-0.3-4.4-2.9-7.2-7.1-7.2c-4.1,0-7,2.8-7.6,7.2c0.7-0.2,0.9-0.2,1.6-0.2H317.7z"/>
		<path d="M334.1,137.5c0.9-4.1,3.5-6.3,7.8-6.3c0.6,0,1.2,0.1,1.8,0.3v3.9c-0.9-0.5-1.3-0.6-2.3-0.6c-4.4,0-7,3.3-7,8.7v8.1
			c0,0.6,0,0.7-0.2,1.2c0.5-0.2,0.6-0.2,1.2-0.2h4.1v3.2h-13.9v-3.2h3.4c0.6,0,0.7,0,1.2,0.2c-0.1-0.5-0.1-0.6-0.1-1.2v-15.5
			c0-0.6,0-0.8,0.1-1.3c-0.6,0.2-0.7,0.2-1.3,0.2l-3.3,0.1v-3.2h8.5v2.5c0,0.2-0.1,0.8-0.2,1.5c0,0.3,0,0.9-0.1,1.5L334.1,137.5z"/>
		<path d="M365.2,131.8v7.8h-3.5c0-3.1-2.4-5.1-6.4-5.1c-3.5,0-5.7,1.4-5.7,3.7c0,0.8,0.3,1.5,0.9,2c0.7,0.6,1.3,0.8,3.4,1.1l3,0.5
			c3.1,0.5,5,1.1,6.3,2.1c1.4,1.1,2.3,2.9,2.3,4.9c0,4.8-3.6,7.7-9.6,7.7c-3.7,0-6-1.2-7.4-4l-0.2,0c0.2,0.9,0.3,1.3,0.3,1.8v1.5
			H345v-8.3h3.4c0.2,3.4,2.9,5.5,7,5.5c0.9,0,2.5-0.3,3.4-0.7c1.2-0.5,2.1-1.7,2.1-2.9c0-1.4-0.6-2.4-1.6-2.9
			c-0.8-0.4-1.7-0.6-3.8-0.9l-2.7-0.3c-5.5-0.8-7.6-2.7-7.6-6.8c0-2.4,1.1-4.3,3.1-5.5c2-1.2,4.5-1.8,7-1.7c3.2,0.2,5.1,1.2,6.4,3.6
			l0.3-0.1c-0.3-0.8-0.3-1.2-0.3-1.6v-1.3L365.2,131.8L365.2,131.8z"/>
		<path d="M376.8,151.6c0,0.6,0,0.7-0.2,1.2c0.5-0.2,0.6-0.2,1.2-0.2h3.2v3.2h-13v-3.2h3.4c0.6,0,0.6,0,1.1,0.2
			c-0.1-0.5-0.1-0.6-0.1-1.2v-15.5c0-0.6,0-0.8,0.1-1.3c-0.5,0.2-0.7,0.2-1.2,0.2l-3.3,0.1v-3.2h8.7L376.8,151.6L376.8,151.6z
			 M376.8,121.5v4.7H372v-4.7H376.8z"/>
		<path d="M397.9,148.4c0,3-0.3,4.3-1.1,5.5c-1.2,1.8-2.6,2.5-5.6,2.5c-2,0-3.3-0.4-4.5-1.4c-1.5-1.2-2-2.7-2-5.9v-13.1
			c0-0.6,0-0.8,0.1-1.3c-0.6,0.2-0.7,0.2-1.2,0.2L380,135v-3.2h3.7c0.6,0,0.7,0,1.2,0.2c-0.1-0.5-0.1-0.6-0.1-1.2v-4.3l4.4-1.5v5.9
			c0,0.6,0,0.7-0.2,1.2c0.5-0.2,0.6-0.2,1.2-0.2h6.8v3.2l-6.7-0.1c-0.6,0-0.7-0.1-1.2-0.2c0.2,0.5,0.2,0.7,0.2,1.2v13.1
			c0,1.7,0.2,2.4,0.6,3c0.5,0.6,1.2,0.9,2.1,0.9c1.1,0,2-0.6,2.4-1.6c0.2-0.6,0.3-1.4,0.4-3H397.9L397.9,148.4z"/>
		<path d="M400.7,134.9l-2.6,0.1v-3.2h11.7v3.2l-2.3-0.1c-1.1,0-1.4,0-2.5-0.1c0.7,1.2,0.7,1.4,1.4,3.1l3.6,8.3
			c1.1,2.5,1.3,3.1,2.1,5.4h0.2c0.8-2.4,0.9-2.8,2.1-5.4l3.4-8.4c0.7-1.5,0.8-1.8,1.4-3c-1,0.1-1.3,0.1-2.5,0.1l-2.3,0.1v-3.2h11.2
			v3.2l-2.5-0.1l-10,23.2c-1.5,3.5-2.4,5-3.4,5.8c-1,0.8-2.6,1.2-4.5,1.2c-1.2,0-2.4-0.1-3.2-0.3v-3.2c0.5,0.1,1.6,0.2,2.2,0.2
			c2.5,0,3-0.4,4.3-3.1l1.3-2.7L400.7,134.9z"/>
	</g>
	<path d="M171.8,147L171.8,147c-15.6,10.9-54.7,22.2-61.3,2.5c-11.9,9-19,33.3-22,45.5l0,0c-3-12.1-10.2-36.5-22-45.5
		c-6.6,19.6-45.7,8.4-61.3-2.5h0c-1.7-19,8.2-58.5,28.5-54.3C31.8,77.9,14.2,59.5,5.3,50.8v0c12,3.4,36.7,9.5,50.4,3.6
		C41.9,39,71.2,10.7,88.5,2.7l0,0c17.3,8,46.6,36.3,32.8,51.8c13.7,5.8,38.4-0.2,50.4-3.6l0,0c-9,8.7-26.5,27.1-28.3,41.8
		C163.6,88.5,173.5,128,171.8,147z M88.5,11.2L88.5,11.2c-13.7,7-27.7,19.4-30,34.6l0,0c17.2-5.8,26.7,17.9,30,31.2
		c3.3-13.2,12.8-36.9,30-31.2l0,0C116.2,30.6,102.1,18.1,88.5,11.2z M164.4,142.6L164.4,142.6c0.8-15.3-3-33.8-14.9-43.3l0,0
		c-3.6,17.8-28.9,14.2-42,10.4c9.8,9.5,25.6,29.6,12,41.6l0,0C133.7,156.9,151.5,151,164.4,142.6z M12.6,142.6L12.6,142.6
		c12.9,8.3,30.7,14.3,45,8.7l0,0c-13.6-12,2.1-32.1,12-41.6c-13.1,3.8-38.4,7.4-42-10.4l0,0C15.5,108.9,11.8,127.3,12.6,142.6z
		 M88.5,102.5L88.5,102.5c-13.7,7.7-27.7,21.4-30,38.1h0c17.2-6.4,26.7,19.8,30,34.4c3.3-14.6,12.8-40.8,30-34.4h0
		C116.2,124,102.1,110.2,88.5,102.5z M85.3,97L85.3,97c0.2-15.7-4.7-34.8-18-45.1l0,0c-3.1,18.1-30.5,13.3-44.8,8.8
		c11,10.1,28.9,31.5,14.8,43.2l0,0C52.8,110.3,71.8,104.9,85.3,97z M91.7,97L91.7,97c13.5,8,32.5,13.3,48.1,6.9l0,0
		c-14.1-11.7,3.7-33,14.8-43.2c-14.3,4.5-41.7,9.3-44.8-8.8l0,0C96.4,62.2,91.5,81.3,91.7,97z"/>
</g>
</svg>
