<?xml version="1.0" encoding="utf-8"?>
			<!-- Generator: Adobe Illustrator 16.0.4, SVG Export Plug-In . SVG Version: 6.00 Build 0)  -->
			<!DOCTYPE svg PUBLIC "-//W3C//DTD SVG 1.1//EN" "http://www.w3.org/Graphics/SVG/1.1/DTD/svg11.dtd">
			<svg version="1.1" id="Layer_3" xmlns="http://www.w3.org/2000/svg" xmlns:xlink="http://www.w3.org/1999/xlink" x="0px" y="0px"
			    width="510.678px" height="194.957px" viewBox="0 0 510.678 194.957" enable-background="new 0 0 510.678 194.957" xml:space="preserve">
				<g>
					<g>
						<path d="M192.655,53.874h3.134c0.565,0,0.668,0,1.182,0.154c-0.154-0.512-0.154-0.617-0.154-1.181V30.812
			c0-0.564,0-0.67,0.154-1.182c-0.514,0.155-0.615,0.155-1.182,0.155h-3.134v-5.086h15.923l5.343,19.159
			c1.029,3.645,1.232,4.573,1.8,7.962h0.255c0.667-3.389,0.821-4.317,1.851-7.912l5.547-19.208h15.771v5.086h-3.135
			c-0.562,0-0.667,0-1.18-0.155c0.153,0.512,0.153,0.618,0.153,1.182v22.035c0,0.564,0,0.669-0.153,1.181
			c0.512-0.154,0.616-0.154,1.18-0.154h3.135v5.084h-14.483v-5.084h2.567c0.563,0,0.668,0,1.183,0.154
			c-0.154-0.512-0.154-0.617-0.154-1.181V39.492c0-4.676,0.051-6.266,0.462-10.993l-0.258-0.049
			c-1.025,4.673-1.386,6.009-2.771,10.681l-5.908,19.828h-8.319l-5.907-19.828c-1.233-4.315-1.645-5.958-2.672-10.681l-0.308,0.049
			c0.409,4.727,0.462,6.317,0.462,10.993v13.355c0,0.564,0,0.669-0.155,1.181c0.516-0.154,0.617-0.154,1.184-0.154h2.518v5.084
			H192.66L192.655,53.874L192.655,53.874z" />
						<path d="M258.685,55.622c-2.774,2.825-5.086,3.849-8.375,3.849c-5.34,0-8.937-3.133-8.937-7.752c0-5.447,4.059-8.168,12.226-8.168
			c0.616,0,1.695,0.049,2.878,0.154h0.562l0.564,0.05l0.617,0.054c-0.154-0.209-0.154-0.309-0.154-0.517V42.88
			c0-1.54-0.152-2.359-0.614-3.029c-0.668-0.875-2.104-1.436-3.802-1.436c-2.825,0-4.109,1.077-4.469,3.646h-6.627
			c0.051-5.342,3.903-8.168,11.146-8.168c3.696,0,6.935,0.977,8.783,2.67c1.438,1.336,2.158,3.288,2.158,6.217v10.786
			c0,0.412,0,0.512-0.155,0.82c0.309-0.154,0.412-0.154,0.771-0.154l2.465-0.05v4.776h-9.194V57.52c0-0.716,0.053-1.028,0.309-1.798
			L258.685,55.622z M254.574,47.965c-4.312,0-6.369,1.235-6.369,3.802c0,1.85,1.542,3.135,3.801,3.135
			c2.158,0,4.11-1.078,5.188-2.825c0.667-1.183,0.823-1.902,0.823-4.008L254.574,47.965z" />
						<path d="M270.33,54.182l2.566,0.05c0.359,0,0.462,0.053,0.771,0.154c-0.103-0.309-0.103-0.408-0.103-0.77V39.9
			c0-0.307,0-0.409,0.103-0.716c-0.309,0.101-0.41,0.101-0.771,0.101l-2.566,0.054v-4.727h9.964v1.747
			c0,0.819-0.104,1.386-0.462,2.464l0.206,0.104c2.207-3.595,4.521-4.932,8.269-4.932c5.547,0,8.784,3.183,8.784,8.577v11.044
			c0,0.361,0,0.461-0.153,0.77c0.309-0.101,0.409-0.154,0.77-0.154l2.415-0.05v4.776h-13.306v-4.776l2.62,0.05
			c0.359,0,0.463,0.053,0.771,0.154c-0.151-0.309-0.151-0.408-0.151-0.77v-9.759c0-3.133-1.287-4.572-4.162-4.572
			c-3.441,0-5.345,2.312-5.345,6.371v7.961c0,0.361,0,0.461-0.103,0.77c0.31-0.101,0.359-0.154,0.721-0.154l2.669-0.05v4.776H270.33
			V54.182z" />
						<path d="M325.017,50.637c-0.361,5.855-4.162,9.042-10.839,9.042c-4.007,0-7.145-1.232-9.248-3.546
			c-2.104-2.309-3.287-5.751-3.287-9.346c0-7.756,4.368-12.84,11.045-12.84c3.391,0,5.495,1.229,7.191,4.157l0.15-0.049
			c-0.307-1.078-0.405-1.541-0.405-2.106v-1.335h5.234v9.757h-5.702c-0.307-3.645-1.749-5.289-4.568-5.289
			c-3.646,0-5.702,2.876-5.702,7.86c0,4.878,2.002,7.703,5.544,7.703c2.521,0,4.161-1.44,4.572-4.007L325.017,50.637L325.017,50.637
			z" />
						<path d="M327.626,54.182l2.566,0.05c0.356,0,0.459,0.053,0.819,0.154c-0.152-0.309-0.152-0.408-0.152-0.77V29.884
			c0-0.561,0-0.665,0.152-1.176c-0.512,0.152-0.618,0.152-1.184,0.152h-2.206v-4.776h10.221v7.757c0,2.975-0.048,3.748-0.31,6.47
			l0.154,0.104c2.568-3.391,4.471-4.419,7.811-4.419c5.442,0,8.883,3.084,8.883,7.961v11.66c0,0.361,0,0.461-0.15,0.77
			c0.356-0.101,0.409-0.154,0.82-0.154l2.36-0.05v4.776h-13.301v-4.776l2.621,0.05c0.358,0,0.457,0.053,0.765,0.154
			c-0.1-0.309-0.1-0.408-0.1-0.77v-9.759c0-3.03-1.388-4.572-4.111-4.572c-3.546,0-5.442,2.209-5.442,6.371v7.961
			c0,0.361,0,0.461-0.154,0.77c0.362-0.101,0.461-0.154,0.771-0.154l2.674-0.05v4.776h-13.508L327.626,54.182L327.626,54.182z"
						/>
						<path d="M383.339,51.46c-0.566,4.878-5.188,8.219-11.51,8.219c-7.908,0-12.79-4.985-12.79-12.893c0-4.16,1.03-7.04,3.443-9.4
			c2.261-2.209,5.442-3.391,9.092-3.391c7.556,0,12.023,4.728,12.023,12.738v2.006h-16.341c-0.615,0-0.769,0-1.281-0.208
			c0.31,4.058,2.465,6.32,6.009,6.32c2.568,0,4.313-1.234,4.929-3.391H383.339z M375.373,44.37c0.773,0,0.927,0,1.541,0.155
			c-0.458-3.955-2.207-5.906-5.285-5.906c-3.188,0-5.139,2.106-5.55,5.906c0.615-0.155,0.774-0.155,1.488-0.155H375.373z" />
						<path d="M392.362,50.433c0.259,2.979,2.156,4.673,5.036,4.673c2.204,0,3.546-1.028,3.546-2.568c0-1.693-1.083-2.517-4.265-3.083
			c-5.19-0.974-6.73-1.49-8.011-2.668c-1.393-1.389-2.01-2.826-2.01-4.931c0-5.138,3.135-8.015,8.892-8.015
			c2.819,0,4.827,1.028,6.725,3.546l0.156-0.053c-0.207-0.771-0.306-1.127-0.306-1.644v-1.078h5.135v8.064h-5.348
			c-0.354-2.875-1.948-4.366-4.726-4.366c-2.104,0-3.491,0.975-3.491,2.569c0,0.769,0.363,1.439,0.926,1.747
			c0.511,0.307,1.184,0.562,2.058,0.716l3.181,0.719c4.111,0.873,5.497,1.544,6.783,3.187c0.922,1.181,1.332,2.668,1.332,4.518
			c0,4.983-3.285,7.809-9.193,7.809c-3.133,0-4.772-0.875-6.985-3.75l-0.205,0.103c0.31,0.771,0.416,1.233,0.416,1.745v1.285h-5.243
			v-8.526L392.362,50.433L392.362,50.433z" />
						<path d="M409.71,34.612h2.777c0.562,0,0.665,0,1.179,0.103c-0.154-0.516-0.154-0.564-0.154-1.131v-3.492l7.04-2.26v5.752
			c0,0.566,0,0.615-0.159,1.131c0.517-0.103,0.62-0.103,1.183-0.103h5.651v4.827h-5.651c-0.562,0-0.666,0-1.183-0.154
			c0.159,0.516,0.159,0.615,0.159,1.181v11.353c0,2.104,0.562,2.929,1.949,2.929c1.488,0,2.057-0.924,2.206-3.65h4.061v0.874
			c0,4.985-2.362,7.346-7.343,7.346c-5.289,0-7.913-2.26-7.913-6.83V40.466c0-0.566,0-0.666,0.156-1.181
			c-0.517,0.154-0.617,0.154-1.181,0.154h-2.777V34.612L409.71,34.612z" />
						<path d="M455.004,51.46c-0.564,4.878-5.188,8.219-11.507,8.219c-7.912,0-12.792-4.985-12.792-12.893c0-4.16,1.031-7.04,3.443-9.4
			c2.261-2.209,5.447-3.391,9.092-3.391c7.551,0,12.021,4.728,12.021,12.738v2.006h-16.334c-0.619,0-0.771,0-1.287-0.208
			c0.31,4.058,2.468,6.32,6.009,6.32c2.571,0,4.318-1.234,4.937-3.391H455.004z M447.048,44.37c0.765,0,0.921,0,1.537,0.155
			c-0.467-3.955-2.212-5.906-5.294-5.906c-3.184,0-5.135,2.106-5.546,5.906c0.617-0.155,0.769-0.155,1.487-0.155H447.048z"
						/>
						<path d="M457.763,54.182l2.566,0.05c0.357,0,0.468,0.053,0.824,0.154C461,54.077,461,53.978,461,53.616V39.9
			c0-0.307,0-0.409,0.153-0.716c-0.356,0.101-0.467,0.101-0.824,0.101l-2.566,0.054v-4.727h9.708v2.413
			c0,1.029-0.102,1.852-0.517,3.749l0.261,0.053c1.797-4.776,4.157-6.729,7.856-6.729c0.925,0,1.437,0.052,2.672,0.255v5.958
			c-0.977-0.154-1.387-0.203-2.157-0.203c-4.928,0-7.601,2.617-7.601,7.447v5.548c0,0.666,0,0.77-0.104,1.282
			c0.515-0.101,0.669-0.154,1.229-0.154l2.927-0.05v4.776h-14.275L457.763,54.182L457.763,54.182z" />
						<path d="M192.655,102.279h3.134c0.565,0,0.668,0,1.182,0.154c-0.154-0.514-0.154-0.617-0.154-1.183V79.216
			c0-0.564,0-0.669,0.154-1.181c-0.514,0.154-0.615,0.154-1.182,0.154h-3.134v-5.084h15.923l5.343,19.157
			c1.029,3.647,1.232,4.574,1.8,7.96h0.255c0.667-3.387,0.821-4.312,1.851-7.91l5.547-19.208h15.771v5.084h-3.135
			c-0.562,0-0.667,0-1.18-0.154c0.153,0.512,0.153,0.617,0.153,1.181v22.036c0,0.566,0,0.669-0.153,1.182
			c0.512-0.153,0.616-0.153,1.18-0.153h3.135v5.084h-14.483v-5.084h2.567c0.563,0,0.668,0,1.183,0.153
			c-0.154-0.513-0.154-0.615-0.154-1.182V87.899c0-4.678,0.051-6.269,0.462-10.996l-0.258-0.049
			c-1.025,4.673-1.386,6.009-2.771,10.683l-5.908,19.827h-8.319l-5.907-19.827c-1.233-4.315-1.645-5.96-2.672-10.683l-0.308,0.049
			c0.409,4.728,0.462,6.318,0.462,10.996v13.353c0,0.566,0,0.669-0.155,1.182c0.516-0.153,0.617-0.153,1.184-0.153h2.518v5.084
			H192.66L192.655,102.279L192.655,102.279z" />
						<path d="M265.209,99.866c-0.563,4.877-5.188,8.218-11.507,8.218c-7.91,0-12.789-4.984-12.789-12.892c0-4.16,1.027-7.04,3.441-9.4
			c2.261-2.209,5.442-3.392,9.092-3.392c7.551,0,12.021,4.728,12.021,12.739v2.005h-16.337c-0.615,0-0.771,0-1.282-0.208
			c0.309,4.058,2.465,6.318,6.008,6.318c2.57,0,4.316-1.232,4.933-3.387L265.209,99.866L265.209,99.866z M257.248,92.774
			c0.771,0,0.925,0,1.54,0.155c-0.462-3.952-2.208-5.905-5.29-5.905c-3.186,0-5.138,2.105-5.548,5.905
			c0.617-0.155,0.771-0.155,1.488-0.155H257.248z" />
						<path d="M267.299,83.017h2.772c0.564,0,0.669,0,1.181,0.103c-0.152-0.515-0.152-0.564-0.152-1.13v-3.493l7.037-2.259v5.751
			c0,0.566,0,0.615-0.155,1.13c0.517-0.103,0.619-0.103,1.184-0.103h5.65v4.828h-5.65c-0.563,0-0.667,0-1.184-0.155
			c0.155,0.517,0.155,0.615,0.155,1.181v11.353c0,2.106,0.564,2.93,1.952,2.93c1.491,0,2.054-0.922,2.208-3.649h4.059v0.876
			c0,4.984-2.362,7.344-7.347,7.344c-5.29,0-7.909-2.26-7.909-6.83V88.871c0-0.566,0-0.665,0.152-1.181
			c-0.513,0.155-0.615,0.155-1.181,0.155h-2.772V83.017L267.299,83.017z" />
						<path d="M288.655,102.586l2.57,0.051c0.357,0,0.462,0.053,0.82,0.153c-0.153-0.308-0.153-0.408-0.153-0.771V88.305
			c0-0.307,0-0.406,0.153-0.716c-0.358,0.101-0.463,0.101-0.82,0.101l-2.57,0.054v-4.727h9.708v2.414
			c0,1.028-0.102,1.851-0.514,3.75l0.259,0.052c1.797-4.777,4.159-6.729,7.858-6.729c0.924,0,1.438,0.051,2.67,0.255v5.959
			c-0.975-0.155-1.391-0.205-2.157-0.205c-4.931,0-7.604,2.617-7.604,7.449v5.546c0,0.667,0,0.771-0.102,1.282
			c0.513-0.101,0.668-0.153,1.232-0.153l2.925-0.051v4.777h-14.278L288.655,102.586L288.655,102.586z" />
						<path d="M335.797,95.139c0,7.806-5.137,12.791-13.098,12.791c-3.184,0-6.776-1.285-8.885-3.082
			c-2.518-2.105-3.958-5.703-3.958-9.708c0-3.595,1.235-7.039,3.391-9.143c2.313-2.259,5.855-3.596,9.605-3.596
			C330.66,82.4,335.797,87.437,335.797,95.139z M317.052,95.088c0,4.877,2.208,7.857,5.803,7.857c3.544,0,5.805-3.029,5.805-7.703
			c0-4.827-2.21-7.86-5.754-7.86C319.26,87.382,317.052,90.311,317.052,95.088z" />
						<path d="M337.222,111.523h2.206c0.562,0,0.668,0,1.182,0.156c-0.152-0.517-0.152-0.615-0.152-1.182V88.305
			c0-0.307,0-0.406,0.152-0.716c-0.356,0.101-0.409,0.101-0.822,0.101l-2.564,0.054v-4.727h9.762v1.798
			c0,0.824-0.105,1.385-0.417,2.67l0.208,0.051c2.006-3.542,4.673-5.239,8.323-5.239c6.675,0,10.887,4.93,10.887,12.895
			c0,7.808-4.054,12.738-10.529,12.738c-3.698,0-6.42-1.593-8.217-4.881l-0.205,0.104c0.356,1.953,0.409,2.617,0.409,4.57v2.776
			c0,0.565,0,0.665-0.101,1.181c0.512-0.154,0.562-0.154,1.126-0.154h2.672v4.777h-13.919V111.523L337.222,111.523z M347.134,95.346
			c0,4.619,2.415,7.654,5.958,7.654c3.7,0,5.858-2.877,5.858-7.808c0-4.881-2.159-7.86-5.603-7.86
			C349.497,87.332,347.134,90.415,347.134,95.346z" />
						<path d="M394.019,95.139c0,7.806-5.137,12.791-13.102,12.791c-3.186,0-6.783-1.285-8.892-3.082
			c-2.511-2.105-3.953-5.703-3.953-9.708c0-3.595,1.235-7.039,3.395-9.143c2.312-2.259,5.854-3.596,9.604-3.596
			C388.882,82.4,394.019,87.437,394.019,95.139z M375.266,95.088c0,4.877,2.21,7.857,5.804,7.857c3.548,0,5.805-3.029,5.805-7.703
			c0-4.827-2.208-7.86-5.75-7.86C377.476,87.382,375.266,90.311,375.266,95.088z" />
						<path d="M395.753,102.586l2.562,0.051c0.413,0,0.465,0,0.824,0.153c-0.154-0.308-0.154-0.408-0.154-0.771V78.29
			c0-0.563,0-0.667,0.154-1.179c-0.519,0.155-0.615,0.155-1.184,0.155h-2.202v-4.779h10.219v29.535c0,0.36,0,0.461-0.106,0.77
			c0.312-0.152,0.411-0.152,0.771-0.152l2.36-0.052v4.777h-13.244V102.586z" />
						<path d="M411.863,102.586l2.573,0.051c0.357,0,0.462,0.053,0.825,0.153c-0.159-0.308-0.159-0.408-0.159-0.771V88.305
			c0-0.307,0-0.406,0.159-0.716c-0.363,0.101-0.468,0.101-0.825,0.101l-2.573,0.054v-4.727h10.229v19.004c0,0.36,0,0.461-0.156,0.77
			c0.36-0.102,0.461-0.152,0.825-0.152l2.36-0.052v4.777h-13.258V102.586z M414.846,72.487h7.244v6.984h-7.244V72.487z" />
						<path d="M425.883,83.017h2.771c0.566,0,0.666,0,1.184,0.103c-0.153-0.515-0.153-0.564-0.153-1.13v-3.493l7.035-2.259v5.751
			c0,0.566,0,0.615-0.154,1.13c0.515-0.103,0.623-0.103,1.186-0.103h5.65v4.828h-5.65c-0.562,0-0.671,0-1.186-0.155
			c0.154,0.517,0.154,0.615,0.154,1.181v11.353c0,2.106,0.564,2.93,1.958,2.93c1.485,0,2.052-0.922,2.205-3.649h4.061v0.876
			c0,4.984-2.362,7.344-7.347,7.344c-5.295,0-7.912-2.26-7.912-6.83V88.871c0-0.566,0-0.665,0.153-1.181
			c-0.518,0.155-0.615,0.155-1.184,0.155h-2.771V83.017L425.883,83.017z" />
						<path d="M463.932,104.027c-2.774,2.824-5.084,3.85-8.368,3.85c-5.346,0-8.942-3.134-8.942-7.754c0-5.446,4.06-8.168,12.229-8.168
			c0.615,0,1.691,0.05,2.876,0.155h0.562l0.567,0.05l0.614,0.053c-0.15-0.208-0.15-0.307-0.15-0.516v-0.411
			c0-1.541-0.158-2.361-0.616-3.03c-0.668-0.874-2.104-1.439-3.801-1.439c-2.827,0-4.112,1.083-4.473,3.648h-6.623
			c0.051-5.343,3.905-8.168,11.145-8.168c3.7,0,6.934,0.978,8.784,2.671c1.437,1.336,2.16,3.288,2.16,6.217v10.788
			c0,0.41,0,0.512-0.159,0.818c0.312-0.152,0.418-0.152,0.773-0.152l2.466-0.052v4.777h-9.198v-1.439
			c0-0.715,0.054-1.022,0.311-1.797L463.932,104.027z M459.82,96.37c-4.31,0-6.364,1.236-6.364,3.805
			c0,1.847,1.538,3.134,3.801,3.134c2.155,0,4.104-1.078,5.188-2.826c0.665-1.184,0.819-1.901,0.819-4.006L459.82,96.37z" />
						<path d="M475.217,102.586l2.566,0.051c0.358,0,0.465,0.053,0.771,0.153c-0.106-0.308-0.106-0.408-0.106-0.771V88.305
			c0-0.307,0-0.406,0.106-0.716c-0.308,0.101-0.412,0.101-0.771,0.101l-2.566,0.054v-4.727h9.967v1.747
			c0,0.822-0.104,1.388-0.464,2.464l0.207,0.104c2.206-3.594,4.52-4.932,8.268-4.932c5.549,0,8.786,3.185,8.786,8.578v11.043
			c0,0.36,0,0.461-0.156,0.77c0.311-0.102,0.414-0.152,0.772-0.152l2.412-0.052v4.777h-13.306v-4.777l2.618,0.052
			c0.36,0,0.468,0.051,0.772,0.152c-0.154-0.307-0.154-0.408-0.154-0.77v-9.76c0-3.133-1.282-4.573-4.159-4.573
			c-3.44,0-5.347,2.314-5.347,6.371v7.961c0,0.36,0,0.461-0.1,0.77c0.306-0.102,0.358-0.152,0.723-0.152l2.666-0.052v4.777h-13.508
			L475.217,102.586L475.217,102.586z" />
						<path d="M197.792,125.925c0-0.562,0-0.614,0.153-1.127c-0.513,0.099-0.614,0.099-1.181,0.099h-3.597v-3.387h14.64v3.387h-4.416
			c-0.516,0-0.618,0-1.131-0.099c0.102,0.513,0.102,0.565,0.102,1.127v17.517c0,2.466,0.515,4.16,1.542,5.703
			c1.54,2.207,4.317,3.541,7.294,3.541c5.753,0,9.041-3.8,9.041-10.375v-16.386c0-0.562,0-0.614,0.152-1.127
			c-0.513,0.099-0.616,0.099-1.129,0.099h-4.366v-3.387h14.022v3.387h-3.546c-0.514,0-0.616,0-1.128-0.099
			c0.102,0.513,0.102,0.565,0.102,1.127v15.821c0,4.828-0.514,6.986-2.312,9.555c-2.261,3.286-6.216,5.238-10.735,5.238
			c-4.775,0-8.577-1.643-10.991-4.672c-1.797-2.315-2.518-4.829-2.518-8.835L197.792,125.925L197.792,125.925z" />
						<path d="M237.991,136.766c1.335-3.75,4.058-5.549,8.318-5.549c5.24,0,8.375,2.827,8.375,7.45v12.894c0,0.563,0,0.664-0.155,1.181
			c0.514-0.155,0.618-0.155,1.183-0.155h2.825v3.186h-12.379v-3.186h3.187c0.513,0,0.614,0,1.128,0.155
			c-0.103-0.517-0.103-0.617-0.103-1.181v-11.408c0-3.491-1.747-5.393-5.035-5.596c-4.211-0.205-7.036,2.774-7.036,7.602v9.402
			c0,0.512,0,0.664-0.153,1.181c0.516-0.155,0.617-0.155,1.183-0.155h3.235v3.186h-13.046v-3.186h3.441c0.563,0,0.615,0,1.129,0.155
			c-0.104-0.517-0.104-0.617-0.104-1.181v-15.465c0-0.615,0-0.771,0.104-1.283c-0.564,0.154-0.668,0.154-1.283,0.154l-3.287,0.051
			v-3.184h8.526v2.209c0,0.666-0.104,1.281-0.359,2.669L237.991,136.766z" />
						<path d="M269.049,151.559c0,0.564,0,0.666-0.153,1.182c0.516-0.155,0.618-0.155,1.183-0.155h3.235v3.185H260.32v-3.185h3.391
			c0.564,0,0.615,0,1.129,0.155c-0.103-0.518-0.103-0.617-0.103-1.182v-15.465c0-0.615,0-0.771,0.103-1.281
			c-0.514,0.153-0.667,0.153-1.23,0.153l-3.288,0.05v-3.183h8.73L269.049,151.559L269.049,151.559z M268.999,121.509v4.675h-4.726
			v-4.675H268.999z" />
						<path d="M291.591,137.792c0.515-1.336,0.668-1.698,1.235-2.979c-1.028,0.153-1.235,0.153-2.364,0.153l-2.21,0.05v-3.183h11.456
			v3.183l-2.772-0.103l-8.323,20.856h-5.394l-8.474-20.856l-2.774,0.103v-3.183h11.712v3.183l-2.159-0.05
			c-1.078,0-1.385,0-2.36-0.153c0.562,1.281,0.718,1.644,1.23,2.926l3.393,8.938c1.078,2.775,1.283,3.338,2.054,5.908h0.206
			c0.771-2.57,0.977-3.133,2.055-5.908L291.591,137.792z" />
						<path d="M322.961,148.375c-0.771,4.877-5.085,8.011-11.093,8.011c-7.498,0-12.276-4.825-12.276-12.379
			c0-7.912,4.677-12.79,12.276-12.79c5.552,0,9.503,2.827,10.784,7.704c0.518,1.853,0.617,2.826,0.617,5.854h-18.337
			c-0.411,0-0.513,0-0.87-0.152c0.102,4.831,3.337,8.373,7.754,8.373c3.854,0,6.525-1.693,7.191-4.62L322.961,148.375
			L322.961,148.375z M317.726,141.643c0.561,0,0.667,0,1.13,0.156c-0.259-4.418-2.926-7.244-7.088-7.244
			c-4.113,0-7.04,2.775-7.604,7.244c0.668-0.156,0.875-0.156,1.645-0.156H317.726z" />
						<path d="M334.095,137.484c0.871-4.109,3.542-6.269,7.807-6.269c0.567,0,1.184,0.101,1.797,0.257v3.851
			c-0.875-0.462-1.336-0.615-2.31-0.615c-4.37,0-7.04,3.288-7.04,8.731v8.119c0,0.563,0,0.664-0.151,1.18
			c0.459-0.154,0.615-0.154,1.184-0.154h4.104v3.186h-13.919v-3.186h3.389c0.567,0,0.672,0,1.184,0.154
			c-0.15-0.516-0.15-0.616-0.15-1.18v-15.466c0-0.614,0-0.771,0.15-1.282c-0.567,0.154-0.716,0.154-1.284,0.154l-3.287,0.051v-3.184
			h8.527v2.518c0,0.203-0.052,0.769-0.154,1.539c0,0.31-0.05,0.875-0.103,1.539L334.095,137.484z" />
						<path d="M365.21,131.834v7.807h-3.489c0-3.133-2.366-5.084-6.372-5.084c-3.491,0-5.651,1.439-5.651,3.698
			c0,0.771,0.31,1.489,0.875,1.952c0.667,0.566,1.34,0.82,3.392,1.078l2.979,0.461c3.084,0.462,5.034,1.078,6.266,2.056
			c1.439,1.128,2.263,2.925,2.263,4.88c0,4.778-3.646,7.704-9.604,7.704c-3.7,0-6.009-1.233-7.448-3.952l-0.207,0.049
			c0.207,0.875,0.26,1.285,0.26,1.798v1.491h-3.438v-8.27h3.438c0.207,3.387,2.929,5.493,7.04,5.493c0.87,0,2.514-0.308,3.437-0.716
			c1.184-0.518,2.058-1.748,2.058-2.93c0-1.438-0.567-2.414-1.646-2.931c-0.767-0.356-1.69-0.562-3.847-0.87l-2.672-0.308
			c-5.499-0.824-7.606-2.671-7.606-6.833c0-2.363,1.083-4.266,3.137-5.496c2.001-1.232,4.471-1.848,7.033-1.695
			c3.188,0.205,5.084,1.233,6.374,3.646l0.255-0.051c-0.255-0.822-0.308-1.234-0.308-1.643v-1.336H365.21z" />
						<path d="M376.806,151.559c0,0.564,0,0.666-0.153,1.182c0.511-0.155,0.62-0.155,1.184-0.155h3.232v3.185h-12.994v-3.185h3.393
			c0.562,0,0.613,0,1.131,0.155c-0.103-0.518-0.103-0.617-0.103-1.182v-15.465c0-0.615,0-0.771,0.103-1.281
			c-0.518,0.153-0.668,0.153-1.232,0.153l-3.29,0.05v-3.183h8.731L376.806,151.559L376.806,151.559z M376.756,121.509v4.675h-4.729
			v-4.675H376.756z" />
						<path d="M397.911,148.375c0,3.03-0.257,4.261-1.081,5.548c-1.182,1.797-2.615,2.463-5.597,2.463c-1.951,0-3.337-0.411-4.467-1.385
			c-1.489-1.183-2.003-2.722-2.003-5.856v-13.05c0-0.614,0-0.771,0.149-1.282c-0.562,0.154-0.716,0.154-1.231,0.154l-3.647,0.051
			v-3.184h3.7c0.564,0,0.67,0,1.18,0.152c-0.149-0.514-0.149-0.614-0.149-1.18v-4.316l4.366-1.54v5.856c0,0.564,0,0.666-0.156,1.18
			c0.517-0.152,0.615-0.152,1.183-0.152h6.782v3.184l-6.73-0.051c-0.567,0-0.718-0.053-1.233-0.154
			c0.156,0.512,0.156,0.668,0.156,1.232v13.1c0,1.744,0.152,2.414,0.613,2.979c0.462,0.617,1.237,0.924,2.109,0.924
			c1.127,0,2.05-0.615,2.36-1.643c0.204-0.616,0.257-1.391,0.358-3.03L397.911,148.375L397.911,148.375z" />
						<path d="M400.678,134.914l-2.622,0.104v-3.184h11.709v3.184l-2.312-0.051c-1.126,0-1.437,0-2.465-0.104
			c0.668,1.23,0.725,1.439,1.438,3.082l3.595,8.32c1.083,2.467,1.342,3.082,2.107,5.445h0.207c0.771-2.363,0.925-2.826,2.056-5.445
			l3.437-8.373c0.674-1.541,0.775-1.799,1.393-3.029c-1.026,0.104-1.336,0.104-2.463,0.104l-2.267,0.051v-3.184h11.25v3.184
			l-2.464-0.104l-9.967,23.166c-1.49,3.495-2.415,4.984-3.387,5.754c-1.029,0.77-2.62,1.182-4.472,1.182
			c-1.231,0-2.362-0.104-3.187-0.309v-3.236c0.515,0.104,1.593,0.153,2.211,0.153c2.465,0,2.977-0.412,4.262-3.134l1.281-2.67
			L400.678,134.914z" />
					</g>
					<path d="M171.793,146.975v0.002c-15.605,10.937-54.725,22.162-61.281,2.518c-11.895,8.951-19.017,33.349-22.048,45.463l0,0
		c-3.03-12.114-10.152-36.509-22.046-45.461c-6.559,19.645-45.674,8.417-61.277-2.518H5.137
		c-1.664-18.981,8.168-58.474,28.458-54.325c-1.804-14.769-19.352-33.131-28.333-41.82V50.83
		c12.011,3.438,36.689,9.453,50.386,3.633C41.908,38.964,71.19,10.703,88.464,2.657l0,0c17.274,8.046,46.558,36.308,32.813,51.807
		c13.695,5.823,38.377-0.195,50.388-3.635l0.004,0.003c-8.982,8.683-26.532,27.052-28.336,41.818
		C163.624,88.502,173.457,127.992,171.793,146.975z M88.465,11.163L88.465,11.163C74.8,18.141,60.717,30.6,58.44,45.742l0.019,0.001
		c17.167-5.788,26.724,17.905,30.007,31.153c3.281-13.248,12.837-36.941,30.009-31.153l0.014-0.001
		C116.211,30.6,102.127,18.141,88.465,11.163z M164.372,142.628L164.372,142.628c0.786-15.321-2.964-33.75-14.939-43.288
		l-0.006,0.012c-3.572,17.756-28.876,14.186-41.994,10.404c9.838,9.471,25.58,29.594,11.982,41.571l-0.002,0.007
		C133.663,156.938,151.493,150.967,164.372,142.628z M12.558,142.623v0.004c12.882,8.341,30.712,14.311,44.958,8.708l-0.005-0.011
		c-13.59-11.973,2.148-32.098,11.985-41.57c-13.118,3.783-38.421,7.354-41.994-10.404l-0.007-0.011
		C15.523,108.875,11.777,127.309,12.558,142.623z M88.465,102.516L88.465,102.516c-13.665,7.7-27.748,21.448-30.024,38.148h0.019
		c17.167-6.383,26.724,19.763,30.007,34.38c3.281-14.617,12.837-40.763,30.009-34.38h0.014
		C116.211,123.964,102.127,110.216,88.465,102.516z M85.255,96.952L85.255,96.952c0.163-15.686-4.694-34.753-18.026-45.073
		l-0.013,0.009c-3.051,18.056-30.473,13.268-44.771,8.804C33.46,70.835,51.319,92.19,37.207,103.861l-0.003,0.017
		C52.808,110.258,71.755,104.93,85.255,96.952z M91.674,96.952l0.007,0.002c13.495,7.983,32.444,13.305,48.049,6.925l-0.005-0.018
		c-14.112-11.668,3.746-33.021,14.763-43.169c-14.297,4.467-41.722,9.257-44.771-8.804l-0.007-0.008
		C96.373,62.202,91.513,81.269,91.674,96.952z" />
				</g>
			</svg>