<?xml version="1.0" encoding="UTF-8"?>
<svg width="65px" height="59px" viewBox="0 0 65 59" version="1.1" xmlns="http://www.w3.org/2000/svg" xmlns:xlink="http://www.w3.org/1999/xlink">
    <!-- Generator: Sketch 51.2 (57519) - http://www.bohemiancoding.com/sketch -->
    <title>teaching-web</title>
    <desc>Created with Sketch.</desc>
    <defs>
        <linearGradient x1="50%" y1="50%" x2="50%" y2="100%" id="linearGradient-1">
            <stop stop-color="#4CAFED" offset="0%"></stop>
            <stop stop-color="#1C4057" offset="100%"></stop>
        </linearGradient>
    </defs>
    <g id="Page-1" stroke="none" stroke-width="1" fill="none" fill-rule="evenodd">
        <path d="M9.456,41.104 L5.664,41.104 L12.384,22.336 L16.176,22.336 L9.456,41.104 Z M16.944,41.104 L13.152,41.104 L19.872,22.336 L23.664,22.336 L16.944,41.104 Z M24.432,41.104 L20.64,41.104 L27.36,22.336 L31.152,22.336 L24.432,41.104 Z M31.92,41.104 L28.128,41.104 L34.848,22.336 L38.64,22.336 L31.92,41.104 Z M39.408,41.104 L35.616,41.104 L42.336,22.336 L46.128,22.336 L39.408,41.104 Z M46.896,41.104 L43.104,41.104 L49.824,22.336 L53.616,22.336 L46.896,41.104 Z M54.384,41.104 L50.592,41.104 L57.312,22.336 L61.104,22.336 L54.384,41.104 Z" id="///////" fill="url(#linearGradient-1)" transform="translate(33.384000, 31.720000) rotate(-270.000000) translate(-33.384000, -31.720000) "></path>
        <path d="M27.456,40.104 L23.664,40.104 L30.384,21.336 L34.176,21.336 L27.456,40.104 Z M34.944,40.104 L31.152,40.104 L37.872,21.336 L41.664,21.336 L34.944,40.104 Z M42.432,40.104 L38.64,40.104 L45.36,21.336 L49.152,21.336 L42.432,40.104 Z M49.92,40.104 L46.128,40.104 L52.848,21.336 L56.64,21.336 L49.92,40.104 Z M57.408,40.104 L53.616,40.104 L60.336,21.336 L64.128,21.336 L57.408,40.104 Z M64.896,40.104 L61.104,40.104 L67.824,21.336 L71.616,21.336 L64.896,40.104 Z M72.384,40.104 L68.592,40.104 L75.312,21.336 L79.104,21.336 L72.384,40.104 Z" id="///////" fill="url(#linearGradient-1)" transform="translate(51.384000, 30.720000) rotate(-270.000000) translate(-51.384000, -30.720000) "></path>
        <path d="M-8.544,42.104 L-12.336,42.104 L-5.616,23.336 L-1.824,23.336 L-8.544,42.104 Z M-1.056,42.104 L-4.848,42.104 L1.872,23.336 L5.664,23.336 L-1.056,42.104 Z M6.432,42.104 L2.64,42.104 L9.36,23.336 L13.152,23.336 L6.432,42.104 Z M13.92,42.104 L10.128,42.104 L16.848,23.336 L20.64,23.336 L13.92,42.104 Z M21.408,42.104 L17.616,42.104 L24.336,23.336 L28.128,23.336 L21.408,42.104 Z M28.896,42.104 L25.104,42.104 L31.824,23.336 L35.616,23.336 L28.896,42.104 Z M36.384,42.104 L32.592,42.104 L39.312,23.336 L43.104,23.336 L36.384,42.104 Z" id="///////" fill="url(#linearGradient-1)" transform="translate(15.384000, 32.720000) rotate(-90.000000) translate(-15.384000, -32.720000) "></path>
    </g>
</svg>